<?xml version="1.0" encoding="utf-8"?>
<!-- Generator: Adobe Illustrator 16.0.0, SVG Export Plug-In . SVG Version: 6.00 Build 0)  -->
<!DOCTYPE svg PUBLIC "-//W3C//DTD SVG 1.1//EN" "http://www.w3.org/Graphics/SVG/1.1/DTD/svg11.dtd">
<svg version="1.1" id="Capa_1" xmlns="http://www.w3.org/2000/svg" xmlns:xlink="http://www.w3.org/1999/xlink" x="0px" y="0px"
	 width="110.475px" height="74.378px" viewBox="12.239 93.622 110.475 74.378"
	 enable-background="new 12.239 93.622 110.475 74.378" xml:space="preserve">
<g>
	<path fill="#2C4798" d="M12.239,93.622c0,0,0.122,0.278,0.351,0.801c0.22,0.523,0.56,1.288,0.955,2.271
		c0.403,0.98,0.894,2.17,1.423,3.544c0.269,0.686,0.554,1.416,0.855,2.186c0.154,0.383,0.25,0.793,0.333,1.216
		c0.09,0.422,0.201,0.848,0.313,1.283c1.784,6.974,4.162,16.271,6.541,25.567c2.378,9.298,4.757,18.595,6.541,25.567
		c0.113,0.436,0.216,0.864,0.339,1.277c0.135,0.41,0.237,0.818,0.279,1.23c0.105,0.82,0.205,1.597,0.299,2.327
		c0.195,1.46,0.337,2.738,0.457,3.791c0.126,1.052,0.2,1.884,0.261,2.448c0.053,0.566,0.081,0.869,0.081,0.869
		s-0.12-0.278-0.345-0.802c-0.218-0.524-0.553-1.29-0.947-2.272c-0.4-0.981-0.89-2.172-1.42-3.546
		c-0.269-0.686-0.554-1.415-0.856-2.185c-0.161-0.382-0.269-0.789-0.345-1.214c-0.091-0.421-0.206-0.847-0.316-1.282
		c-1.784-6.973-4.162-16.271-6.541-25.567s-4.757-18.595-6.541-25.567c-0.111-0.436-0.218-0.863-0.342-1.276
		c-0.132-0.411-0.245-0.815-0.293-1.227c-0.105-0.819-0.205-1.597-0.298-2.327c-0.195-1.459-0.336-2.738-0.454-3.793
		c-0.125-1.052-0.194-1.885-0.252-2.45C12.266,93.925,12.239,93.622,12.239,93.622z"/>
</g>
<g>
	<path fill="#2C4798" d="M31.266,168c0,0-0.057-0.224-0.139-0.637c-0.075-0.41-0.21-1.02-0.326-1.779
		c-0.125-0.762-0.248-1.679-0.369-2.726c-0.052-0.521-0.107-1.075-0.165-1.66c-0.042-0.295,0.053-0.56,0.185-0.821
		c0.127-0.262,0.182-0.552,0.27-0.839c1.297-4.622,3.027-10.784,4.757-16.946c1.73-6.162,3.459-12.324,4.757-16.946
		c0.075-0.291,0.177-0.566,0.214-0.854c0.019-0.145,0.027-0.289,0.076-0.422c0.044-0.133,0.13-0.252,0.221-0.369
		c0.355-0.468,0.692-0.913,1.008-1.33c0.647-0.831,1.227-1.552,1.725-2.139c0.489-0.59,0.913-1.042,1.185-1.355
		c0.278-0.311,0.439-0.473,0.439-0.473s0.053,0.223,0.129,0.633c0.069,0.409,0.196,1.017,0.306,1.774
		c0.119,0.761,0.24,1.677,0.36,2.724c0.053,0.521,0.109,1.076,0.169,1.661c0.017,0.146,0.028,0.294-0.003,0.431
		c-0.028,0.138-0.096,0.266-0.155,0.398c-0.119,0.265-0.175,0.555-0.262,0.842c-1.297,4.621-3.027,10.783-4.757,16.945
		c-1.729,6.162-3.459,12.324-4.757,16.946c-0.075,0.291-0.178,0.566-0.207,0.856c-0.023,0.292-0.08,0.568-0.27,0.798
		c-0.354,0.469-0.689,0.913-1.004,1.332c-0.648,0.83-1.23,1.55-1.733,2.136c-0.494,0.588-0.927,1.038-1.204,1.35
		C31.431,167.839,31.266,168,31.266,168z"/>
</g>
<g>
	<path fill="#2C4798" d="M45.104,118.703c0,0,0.085,0.183,0.246,0.526c0.152,0.345,0.391,0.849,0.658,1.496
		c0.275,0.646,0.609,1.43,0.968,2.335c0.177,0.452,0.365,0.934,0.564,1.441c0.104,0.253,0.148,0.524,0.176,0.807
		c0.031,0.28,0.096,0.562,0.149,0.851c0.892,4.622,2.081,10.784,3.271,16.946c1.189,6.162,2.378,12.324,3.27,16.946
		c0.059,0.288,0.103,0.572,0.175,0.846c0.083,0.271,0.133,0.541,0.123,0.816c0.002,0.546,0.004,1.063,0.006,1.55
		c0.011,0.972-0.007,1.824-0.018,2.525c-0.006,0.7-0.036,1.255-0.046,1.632c-0.019,0.378-0.028,0.579-0.028,0.579
		s-0.083-0.184-0.241-0.528c-0.149-0.345-0.384-0.85-0.65-1.497c-0.272-0.646-0.606-1.431-0.957-2.337
		c-0.18-0.452-0.37-0.934-0.571-1.44c-0.111-0.252-0.166-0.521-0.189-0.804c-0.034-0.28-0.099-0.562-0.152-0.851
		c-0.892-4.621-2.081-10.783-3.271-16.945c-1.189-6.162-2.378-12.324-3.271-16.946c-0.058-0.289-0.102-0.574-0.179-0.846
		c-0.078-0.271-0.139-0.54-0.136-0.813c-0.005-0.545-0.009-1.063-0.014-1.549c-0.003-0.973,0.015-1.825,0.029-2.527
		c0.007-0.7,0.042-1.256,0.054-1.633C45.093,118.904,45.104,118.703,45.104,118.703z"/>
</g>
<g>
	<path fill="#2C4798" d="M54.617,168c0,0-0.038-0.319-0.083-0.911c-0.038-0.591-0.119-1.462-0.166-2.558
		c-0.056-1.098-0.095-2.423-0.119-3.938c-0.003-0.755-0.007-1.559-0.011-2.406c-0.016-0.427,0.108-0.829,0.27-1.233
		c0.156-0.404,0.242-0.837,0.359-1.271c1.784-6.973,4.163-16.271,6.541-25.567c2.378-9.298,4.757-18.595,6.541-25.567
		c0.105-0.438,0.237-0.858,0.303-1.286c0.045-0.433,0.15-0.841,0.383-1.204c0.412-0.741,0.802-1.444,1.169-2.104
		c0.748-1.318,1.417-2.463,1.987-3.4c0.562-0.939,1.043-1.668,1.354-2.168c0.317-0.5,0.499-0.763,0.499-0.763
		s0.033,0.317,0.072,0.908c0.033,0.589,0.105,1.459,0.146,2.553c0.05,1.097,0.087,2.421,0.11,3.937
		c0.005,0.756,0.009,1.56,0.015,2.407c0.03,0.432-0.074,0.839-0.242,1.24c-0.147,0.407-0.234,0.839-0.352,1.273
		c-1.784,6.973-4.162,16.271-6.541,25.567s-4.757,18.595-6.541,25.567c-0.105,0.438-0.238,0.858-0.296,1.288
		c-0.052,0.431-0.138,0.844-0.355,1.211c-0.41,0.742-0.799,1.444-1.165,2.105c-0.749,1.317-1.42,2.462-1.996,3.397
		c-0.568,0.938-1.057,1.664-1.374,2.164C54.804,167.738,54.617,168,54.617,168z"/>
</g>
<g>
	<path fill="#2C4798" d="M74.844,96.217c0,0-0.116,0.032-0.34,0.096c-0.111,0.033-0.25,0.075-0.405,0.132
		c-0.075,0.029-0.16,0.063-0.226,0.102c-0.026,0.014-0.07,0.053-0.012,0.033c0.012-0.007,0.012-0.007,0.031-0.022
		c0.02-0.018,0.038-0.041,0.05-0.065c0.016-0.028,0.032-0.077,0.031-0.118c0-0.04-0.001-0.064-0.012-0.097
		c-0.035-0.094-0.046-0.091-0.04-0.1c0.032-0.007,0.149,0.021,0.256,0.03c0.116,0.012,0.239,0.024,0.367,0.037
		c0.264,0.021,0.559,0.039,0.879,0.055c0.646,0.03,1.387,0.066,2.219,0.105c1.67,0.082,3.703,0.212,6.039,0.434
		c1.167,0.115,2.408,0.262,3.722,0.427c0.661,0.069,1.289,0.301,1.917,0.58c0.63,0.273,1.301,0.477,1.975,0.722
		c2.702,0.958,5.612,2.08,8.644,3.446c3.028,1.37,6.182,2.978,9.308,5.005c3.11,2.033,6.244,4.479,8.867,7.759
		c1.301,1.64,2.458,3.502,3.281,5.578c0.83,2.067,1.294,4.345,1.318,6.604c0.03,2.263-0.361,4.481-1.019,6.526
		c-0.656,2.051-1.563,3.942-2.589,5.689c-2.063,3.495-4.574,6.443-7.131,9.076c-2.569,2.626-5.215,4.928-7.787,6.998
		c-2.574,2.069-5.081,3.899-7.426,5.53c-0.582,0.415-1.173,0.787-1.711,1.209c-0.27,0.21-0.528,0.431-0.813,0.604
		c-0.28,0.18-0.586,0.313-0.893,0.438c-1.22,0.509-2.375,0.98-3.47,1.403c-2.19,0.843-4.114,1.521-5.713,2.044
		c-1.592,0.533-2.871,0.891-3.73,1.151c-0.866,0.251-1.333,0.372-1.333,0.372s0.345-0.334,0.993-0.962
		c0.648-0.619,1.598-1.526,2.807-2.682c1.198-1.142,2.651-2.529,4.32-4.12c0.825-0.796,1.706-1.63,2.613-2.528
		c0.226-0.226,0.456-0.452,0.72-0.635c0.259-0.188,0.547-0.341,0.833-0.505c0.571-0.327,1.11-0.729,1.676-1.114
		c2.249-1.564,4.641-3.312,7.065-5.261c2.422-1.948,4.884-4.097,7.208-6.473c2.313-2.376,4.508-4.99,6.179-7.83
		c1.672-2.83,2.766-5.902,2.716-8.848c-0.018-2.942-1.218-5.764-3.194-8.233c-1.969-2.475-4.586-4.575-7.321-6.354
		c-2.745-1.781-5.631-3.26-8.443-4.531c-2.816-1.27-5.566-2.332-8.139-3.243c-0.646-0.222-1.27-0.466-1.908-0.62
		c-0.641-0.149-1.254-0.328-1.806-0.65c-1.113-0.618-2.183-1.188-3.193-1.729c-2.036-1.095-3.812-2.049-5.273-2.835
		c-0.736-0.403-1.396-0.766-1.965-1.109c-0.286-0.169-0.551-0.329-0.794-0.485c-0.122-0.078-0.239-0.155-0.353-0.235
		c-0.117-0.086-0.215-0.15-0.357-0.289c-0.036-0.043-0.088-0.078-0.144-0.221c-0.013-0.045-0.022-0.082-0.02-0.135
		c0.002-0.054,0.018-0.116,0.04-0.156c0.02-0.035,0.045-0.069,0.072-0.098c0.027-0.025,0.04-0.03,0.061-0.045
		c0.144-0.077,0.199-0.061,0.267-0.068c0.123-0.003,0.218,0.016,0.309,0.029c0.177,0.031,0.319,0.065,0.434,0.093
		C74.726,96.187,74.844,96.217,74.844,96.217z"/>
</g>
<g>
	<path fill="#2C4798" d="M79.097,168c0,0-0.049-0.28-0.142-0.807c-0.083-0.525-0.223-1.297-0.363-2.277
		c-0.147-0.981-0.328-2.174-0.5-3.541c-0.09-0.684-0.186-1.411-0.288-2.178c-0.055-0.383-0.045-0.776-0.02-1.179
		c0.018-0.402,0.016-0.814,0.015-1.235c0-6.729,0-15.703,0-24.676s0-17.946,0-24.676c-0.001-0.421,0.005-0.833-0.012-1.235
		c-0.03-0.402-0.027-0.795,0.034-1.179c0.101-0.767,0.197-1.494,0.288-2.178c0.173-1.367,0.353-2.559,0.497-3.541
		c0.138-0.981,0.273-1.752,0.354-2.278c0.089-0.523,0.137-0.804,0.137-0.804s0.047,0.28,0.136,0.806
		c0.082,0.526,0.216,1.297,0.354,2.278c0.144,0.981,0.323,2.173,0.497,3.541c0.09,0.683,0.186,1.41,0.288,2.177
		c0.061,0.384,0.064,0.777,0.034,1.18c-0.017,0.402-0.01,0.814-0.011,1.235c0,6.729,0,15.702,0,24.676c0,8.973,0,17.945,0,24.676
		c0,0.421-0.003,0.832,0.015,1.234c0.025,0.402,0.035,0.796-0.021,1.18c-0.101,0.767-0.197,1.494-0.287,2.178
		c-0.172,1.367-0.353,2.559-0.5,3.54c-0.14,0.981-0.28,1.753-0.363,2.279C79.146,167.72,79.097,168,79.097,168z"/>
</g>
</svg>
